<?xml version="1.0" encoding="UTF-8"?>
<svg id="Layer_1" data-name="Layer 1" xmlns="http://www.w3.org/2000/svg" viewBox="0 0 519.51 987.18">
  <defs>
    <style>
      .cls-1 {
        fill: #fff;
      }
    </style>
  </defs>
  <path class="cls-1" d="M519.51,647.92v-170.82h-31.7v158.5c-13.79,18.52-37.12,37.9-66.64,53.69l-73.98-233.94c-13.2-42.27-42.26-62.52-81.88-62.52s-69.57,20.25-82.77,62.52l-62.97,199.13c-53.07-49.98-86.11-122.83-86.11-202.91,0-55.57,16.35-107.6,44.29-150.86v285.72h31.7v-252.71h108.3c104.78,0,139.12,71.32,185.79,163.78l44.91,88.93h35.22l-48.43-95.98c-40.51-81.01-72.2-145.29-135.6-167.3,66.74-9.98,115.33-41.63,138.01-90.84,20.85,16.12,39.03,36.07,52.79,59.87l27.3-16.73c-18.16-30.71-42.02-55.85-69.54-75.28,2.47-11.72,3.77-24.15,3.77-37.28C451.97,51.07,362.16,0,249.45,0H77.75v247.58C29.35,301.71,0,373.9,0,451.56c0,95.02,42.37,180.75,108.93,236.55L14.36,987.18h32.58l87.64-279.86c44.73,29.79,97.86,47.15,155.12,47.15,42.58,0,80.86-8.32,113.99-21.39l79.99,254.1h31.7l-84.29-266.53c39.57-20.44,69.74-47.36,88.43-72.72ZM247.69,303.78H110.33v-44.18c46.06-47.74,109.06-77.48,178.48-77.48,41.09,0,84.5,10.91,122.37,32.55-21.66,60.14-84.33,89.11-163.49,89.11ZM249.45,29.94c91.58,0,169.94,40.5,169.94,134.72,0,6.03-.31,11.85-.9,17.48-39.36-20.44-83.87-30.83-128.81-30.83-68.19,0-130.29,24.49-179.36,64.94V29.94h139.12ZM289.69,722.77c-54.24,0-104.07-17.61-145.09-47.5l66.11-211.11c8.81-28.18,26.42-42.27,54.59-42.27s44.9,14.09,53.71,42.27l74.89,237.88c-31,12.55-66.66,20.74-104.22,20.74Z"/>
</svg>